# xmcd
#
# Track frame offsets: 
#        150
#        19170
#        42499
#        56149
#        69847
#        85529
#        104283
#        121088
#        132375
#        163200
#        178031
#        201206
#        212775
#        230306
#
# Disc length: 3167 seconds
#
# Revision: 10
# Processed by: cddbd v1.5.2PL0 Copyright (c) Steve Scherf et al.
# Submitted via: ExactAudioCopy v1.1
#
DISCID=c00c5d0e
DTITLE=Parton, Dolly - Little Sparrow
DYEAR=2001
DGENRE=Country
TTITLE0=Dolly Parton - Little Sparrow
TTITLE1=Dolly Parton - Shine
TTITLE2=Dolly Parton - I Don't Believe You've Met My Baby
TTITLE3=Dolly Parton - My Blue Tears
TTITLE4=Dolly Parton - Seven Bridges Road
TTITLE5=Dolly Parton - Bluer Pastures
TTITLE6=Dolly Parton - A Tender Lie
TTITLE7=Dolly Parton - I Get A Kick Out Of You
TTITLE8=Dolly Parton - Mountain Angel
TTITLE9=Dolly Parton - Marry Me
TTITLE10=Dolly Parton - Down From Dover
TTITLE11=Dolly Parton - The Beautiful Lie
TTITLE12=Dolly Parton - In The Sweet By And By
TTITLE13=Dolly Parton - Little Sparrow Reprise
EXTD=YEAR: 2001
EXTT0=
EXTT1=
EXTT2=
EXTT3=
EXTT4=
EXTT5=
EXTT6=
EXTT7=
EXTT8=
EXTT9=
EXTT10=
EXTT11=
EXTT12=
EXTT13=
PLAYORDER=
